<mxfile host="app.diagrams.net" modified="2022-12-26T12:29:29.839Z" agent="5.0 (Windows NT 10.0; Win64; x64) AppleWebKit/537.36 (KHTML, like Gecko) Chrome/108.0.0.0 Safari/537.36" version="20.7.4" etag="jHTfrY5oDo_Mpr7ttV_6" type="github">
  <diagram id="s-k34JmStv0S8IAbdZfg" name="第 1 页">
    <mxGraphModel dx="1071" dy="568" grid="0" gridSize="10" guides="1" tooltips="1" connect="1" arrows="1" fold="1" page="1" pageScale="1" pageWidth="827" pageHeight="1169" math="0" shadow="0">
      <root>
        <mxCell id="0" />
        <mxCell id="1" parent="0" />
        <mxCell id="Ho2QJH8IGu8CYUecWuwJ-30" value="" style="shape=flexArrow;endArrow=classic;html=1;rounded=0;endWidth=59.583333333333336;endSize=26.833333333333336;width=33.333333333333336;fillColor=#f5f5f5;strokeColor=#666666;" edge="1" parent="1">
          <mxGeometry width="50" height="50" relative="1" as="geometry">
            <mxPoint x="178" y="406.0000000000001" as="sourcePoint" />
            <mxPoint x="778" y="406.0000000000001" as="targetPoint" />
          </mxGeometry>
        </mxCell>
        <mxCell id="Ho2QJH8IGu8CYUecWuwJ-31" value="" style="endArrow=none;html=1;rounded=0;startArrow=none;" edge="1" parent="1" source="Ho2QJH8IGu8CYUecWuwJ-38">
          <mxGeometry width="50" height="50" relative="1" as="geometry">
            <mxPoint x="188.75324358258928" y="406" as="sourcePoint" />
            <mxPoint x="698.0000000000002" y="406.0000000000001" as="targetPoint" />
          </mxGeometry>
        </mxCell>
        <mxCell id="Ho2QJH8IGu8CYUecWuwJ-32" value="" style="ellipse;whiteSpace=wrap;html=1;aspect=fixed;fillColor=#67AB9F;" vertex="1" parent="1">
          <mxGeometry x="228" y="401" width="10" height="10" as="geometry" />
        </mxCell>
        <mxCell id="Ho2QJH8IGu8CYUecWuwJ-34" value="" style="endArrow=none;html=1;rounded=0;startArrow=none;" edge="1" parent="1" target="Ho2QJH8IGu8CYUecWuwJ-32">
          <mxGeometry width="50" height="50" relative="1" as="geometry">
            <mxPoint x="188.75324358258933" y="406" as="sourcePoint" />
            <mxPoint x="698.0000000000002" y="406.0000000000001" as="targetPoint" />
          </mxGeometry>
        </mxCell>
        <mxCell id="Ho2QJH8IGu8CYUecWuwJ-36" value="1994" style="text;html=1;strokeColor=none;fillColor=none;align=center;verticalAlign=middle;whiteSpace=wrap;rounded=0;labelBackgroundColor=none;fontColor=default;" vertex="1" parent="1">
          <mxGeometry x="203" y="419" width="60" height="30" as="geometry" />
        </mxCell>
        <mxCell id="Ho2QJH8IGu8CYUecWuwJ-40" value="2017" style="text;html=1;strokeColor=none;fillColor=none;align=center;verticalAlign=middle;whiteSpace=wrap;rounded=0;labelBackgroundColor=none;fontColor=default;" vertex="1" parent="1">
          <mxGeometry x="429" y="419" width="60" height="30" as="geometry" />
        </mxCell>
        <mxCell id="Ho2QJH8IGu8CYUecWuwJ-42" value="" style="ellipse;whiteSpace=wrap;html=1;aspect=fixed;fillColor=#67AB9F;" vertex="1" parent="1">
          <mxGeometry x="600" y="401" width="10" height="10" as="geometry" />
        </mxCell>
        <mxCell id="Ho2QJH8IGu8CYUecWuwJ-43" value="2019" style="text;html=1;strokeColor=none;fillColor=none;align=center;verticalAlign=middle;whiteSpace=wrap;rounded=0;labelBackgroundColor=none;fontColor=default;" vertex="1" parent="1">
          <mxGeometry x="575" y="419" width="60" height="30" as="geometry" />
        </mxCell>
        <mxCell id="Ho2QJH8IGu8CYUecWuwJ-44" value="&lt;span style=&quot;font-family: Consolas, &amp;quot;Courier New&amp;quot;, monospace; font-size: 14px;&quot;&gt;Dissanayake M等人&lt;/span&gt;首次将神经网络应用到PDE" style="text;html=1;strokeColor=none;fillColor=none;align=center;verticalAlign=middle;whiteSpace=wrap;rounded=0;labelBackgroundColor=none;fontColor=default;" vertex="1" parent="1">
          <mxGeometry x="166.75" y="349" width="132.5" height="30" as="geometry" />
        </mxCell>
        <mxCell id="Ho2QJH8IGu8CYUecWuwJ-45" value="&lt;span style=&quot;font-family: Consolas, &amp;quot;Courier New&amp;quot;, monospace; font-size: 14px;&quot;&gt;Raissi&lt;/span&gt;&lt;span style=&quot;font-family: Consolas, &amp;quot;Courier New&amp;quot;, monospace; font-size: 14px;&quot;&gt;&amp;nbsp;M等人提出PINN&lt;/span&gt;" style="text;html=1;strokeColor=none;fillColor=none;align=center;verticalAlign=middle;whiteSpace=wrap;rounded=0;labelBackgroundColor=none;fontColor=default;" vertex="1" parent="1">
          <mxGeometry x="392.75" y="349" width="132.5" height="30" as="geometry" />
        </mxCell>
        <mxCell id="Ho2QJH8IGu8CYUecWuwJ-46" value="&lt;span style=&quot;font-family: Consolas, &amp;quot;Courier New&amp;quot;, monospace; font-size: 14px;&quot;&gt;Lu L等人提出DeepONet算子&lt;/span&gt;" style="text;html=1;strokeColor=none;fillColor=none;align=center;verticalAlign=middle;whiteSpace=wrap;rounded=0;labelBackgroundColor=none;fontColor=default;" vertex="1" parent="1">
          <mxGeometry x="538.75" y="349" width="132.5" height="30" as="geometry" />
        </mxCell>
        <mxCell id="Ho2QJH8IGu8CYUecWuwJ-38" value="" style="ellipse;whiteSpace=wrap;html=1;aspect=fixed;fillColor=#67AB9F;" vertex="1" parent="1">
          <mxGeometry x="454" y="401" width="10" height="10" as="geometry" />
        </mxCell>
        <mxCell id="Ho2QJH8IGu8CYUecWuwJ-47" value="" style="endArrow=none;html=1;rounded=0;startArrow=none;" edge="1" parent="1" source="Ho2QJH8IGu8CYUecWuwJ-32" target="Ho2QJH8IGu8CYUecWuwJ-38">
          <mxGeometry width="50" height="50" relative="1" as="geometry">
            <mxPoint x="237.99999259394383" y="406.00860583923225" as="sourcePoint" />
            <mxPoint x="698.0000000000002" y="406.0000000000001" as="targetPoint" />
          </mxGeometry>
        </mxCell>
      </root>
    </mxGraphModel>
  </diagram>
</mxfile>
